*******************************************************************************
                            Bloody Christmas (2012)
*******************************************************************************

-------------------------------------------------------------------------------
                              General Information
-------------------------------------------------------------------------------
Type.................: Movie



Video Format.........: AVI
Video Bitrate........: 2301
Resolution...........: 720 x 404
Color................: 8 bit
FPS..................: 29.97
Source...............: DVD 16x9
Original Format......: NTSC
Genre................: Horror
IMDb Rating..........: None yet
Movie Information....: http://www.imdb.com/title/tt2148871

-------------------------------------------------------------------------------
                               Post Information
-------------------------------------------------------------------------------
Posted by............: RadioResearch
Posted on............: 2/2/2013

-------------------------------------------------------------------------------
                                 Release Notes
-------------------------------------------------------------------------------
In a small town Police are in search for a child murderer. Meanwhile Rich Tague 
a has been 80's action movie star, is attempting to figure out the meaning of 
Christmas as he plays Santa on a Public Access T.V show. He fantasizes about 
murdering the people that do him wrong. Will he have the strength to not be on 
his own naughty list? 

Wish this would have come out at Xmas time!!

Enjoy!

RadioResearch

General
Complete name                            : G:AVIBloody Christmas (2012)Bloody 
Christmas_Title2.avi
Format                                   : AVI
Format/Info                              : Audio Video Interleave
Format profile                           : OpenDML
File size                                : 1.47 GiB
Duration                                 : 1h 31mn
Overall bit rate                         : 2 301 Kbps
Movie name                               : Bloody_Christmas
Director                                 : Michael_Shershenovich
Genre                                    : Thriller
Writing application                      : MEncoder 5.0
Writing library                          : [= DigiArty videodll! =]

Video
ID                                       : 0
Format                                   : MPEG-4 Visual
Format profile                           : Simple@L1
Format settings, BVOP                    : No
Format settings, QPel                    : No
Format settings, GMC                     : No warppoints
Format settings, Matrix                  : Default (H.263)
Codec ID                                 : DX50
Codec ID/Hint                            : DivX 5
Duration                                 : 1h 31mn
Bit rate                                 : 2 102 Kbps
Width                                    : 720 pixels
Height                                   : 404 pixels
Display aspect ratio                     : 16:9
Frame rate                               : 29.970 fps
Color space                              : YUV
Chroma subsampling                       : 4:2:0
Bit depth                                : 8 bits
Scan type                                : Progressive
Compression mode                         : Lossy
Bits/(Pixel*Frame)                       : 0.241
Stream size                              : 1.34 GiB (91%)
Writing library                          : Lavc54.71.100

Audio
ID                                       : 1
Format                                   : AC-3
Format/Info                              : Audio Coding 3
Mode extension                           : CM (complete main)
Format settings, Endianness              : Big
Codec ID                                 : 2000
Duration                                 : 1h 31mn
Bit rate mode                            : Constant
Bit rate                                 : 192 Kbps
Channel(s)                               : 2 channels
Channel positions                        : Front: L R
Sampling rate                            : 48.0 KHz
Bit depth                                : 16 bits
Compression mode                         : Lossy
Stream size                              : 125 MiB (8%)
Alignment                                : Split accross interleaves
Interleave, duration                     : 500 ms (14.98 video frames)
Interleave, preload duration             : 500 ms



-------------------------------------------------------------------------------
Generated with Cool NFO Creator - http://fly.to/coolbeans
-------------------------------------------------------------------------------
